<svg width="297" height="123" viewBox="0 0 297 123" fill="none" xmlns="http://www.w3.org/2000/svg">
<path d="M142.34 61.602C143.504 61.746 144.392 62.142 145.004 62.79C145.616 63.438 145.922 64.248 145.922 65.22C145.922 65.952 145.736 66.618 145.364 67.218C144.992 67.818 144.428 68.298 143.672 68.658C142.928 69.006 142.016 69.18 140.936 69.18C140.036 69.18 139.166 69.054 138.326 68.802C137.498 68.538 136.79 68.178 136.202 67.722L137.21 65.904C137.666 66.288 138.218 66.594 138.866 66.822C139.526 67.038 140.204 67.146 140.9 67.146C141.728 67.146 142.376 66.978 142.844 66.642C143.324 66.294 143.564 65.826 143.564 65.238C143.564 64.65 143.336 64.194 142.88 63.87C142.436 63.534 141.752 63.366 140.828 63.366H139.676V61.764L142.538 58.362H136.814V56.4H145.4V57.966L142.34 61.602ZM152.06 53.844H154.076L148.136 70.8H146.12L152.06 53.844ZM159.496 61.602C160.66 61.746 161.548 62.142 162.16 62.79C162.772 63.438 163.078 64.248 163.078 65.22C163.078 65.952 162.892 66.618 162.52 67.218C162.148 67.818 161.584 68.298 160.828 68.658C160.084 69.006 159.172 69.18 158.092 69.18C157.192 69.18 156.322 69.054 155.482 68.802C154.654 68.538 153.946 68.178 153.358 67.722L154.366 65.904C154.822 66.288 155.374 66.594 156.022 66.822C156.682 67.038 157.36 67.146 158.056 67.146C158.884 67.146 159.532 66.978 160 66.642C160.48 66.294 160.72 65.826 160.72 65.238C160.72 64.65 160.492 64.194 160.036 63.87C159.592 63.534 158.908 63.366 157.984 63.366H156.832V61.764L159.694 58.362H153.97V56.4H162.556V57.966L159.496 61.602Z" fill="black"/>
<rect width="155.003" height="155.003" transform="translate(105.421 18.6707) scale(0.554139)" fill="white" fill-opacity="0.01"/>
<g filter="url(#filter0_d_94_4028)">
<path fill-rule="evenodd" clip-rule="evenodd" d="M148.368 41.8948C145.778 41.8948 143.213 42.4049 140.821 43.3961C138.428 44.3872 136.254 45.84 134.422 47.6714C132.591 49.5027 131.138 51.6769 130.147 54.0697C129.156 56.4626 128.646 59.0272 128.646 61.6172C128.646 64.2072 129.156 66.7718 130.147 69.1646C131.138 71.5574 132.591 73.7316 134.422 75.563C136.254 77.3944 138.428 78.8471 140.821 79.8383C143.213 80.8294 145.778 81.3396 148.368 81.3396C150.958 81.3396 153.523 80.8294 155.915 79.8383C158.308 78.8471 160.482 77.3944 162.314 75.563C164.145 73.7316 165.598 71.5574 166.589 69.1646C167.58 66.7718 168.09 64.2072 168.09 61.6172C168.09 59.0272 167.58 56.4626 166.589 54.0698C165.598 51.6769 164.145 49.5028 162.314 47.6714C160.482 45.84 158.308 44.3872 155.915 43.3961C153.523 42.4049 150.958 41.8948 148.368 41.8948ZM128.945 14.7265C135.103 12.1758 141.703 10.863 148.368 10.863C155.033 10.863 161.633 12.1758 167.791 14.7265C173.949 17.2771 179.544 21.0156 184.257 25.7286C188.97 30.4415 192.708 36.0366 195.259 42.1944C197.809 48.3522 199.122 54.9521 199.122 61.6172C199.122 68.2823 197.809 74.8822 195.259 81.04C192.708 87.1977 188.97 92.7928 184.257 97.5058C179.544 102.219 173.949 105.957 167.791 108.508C161.633 111.059 155.033 112.371 148.368 112.371C141.703 112.371 135.103 111.059 128.945 108.508C122.787 105.957 117.192 102.219 112.479 97.5058C107.766 92.7928 104.028 87.1977 101.477 81.0399C98.9266 74.8822 97.6138 68.2823 97.6138 61.6172C97.6138 54.952 98.9266 48.3522 101.477 42.1944C104.028 36.0366 107.766 30.4415 112.479 25.7286C117.192 21.0156 122.787 17.2771 128.945 14.7265Z" fill="#FFD164"/>
<path d="M140.821 43.3961L139.972 41.3483L140.821 43.3961ZM148.368 41.8948L148.368 44.1114H148.368V41.8948ZM130.147 69.1646L132.195 68.3164L130.147 69.1646ZM134.422 75.563L135.989 73.9957V73.9957L134.422 75.563ZM155.915 79.8383L155.067 77.7905L155.915 79.8383ZM166.589 69.1646L168.637 70.0128H168.637L166.589 69.1646ZM166.589 54.0698L164.541 54.918V54.918L166.589 54.0698ZM162.314 47.6714L160.746 49.2387V49.2387L162.314 47.6714ZM155.915 43.3961L156.764 41.3483H156.764L155.915 43.3961ZM148.368 10.863L148.368 13.0796H148.368V10.863ZM128.945 14.7265L129.793 16.7743V16.7743L128.945 14.7265ZM167.791 14.7265L168.639 12.6786V12.6786L167.791 14.7265ZM184.257 25.7286L182.689 27.2959L184.257 25.7286ZM199.122 61.6172L196.906 61.6172V61.6172H199.122ZM195.259 81.04L193.211 80.1917L193.211 80.1917L195.259 81.04ZM184.257 97.5058L182.689 95.9384L184.257 97.5058ZM167.791 108.508L168.639 110.556L167.791 108.508ZM148.368 112.371V110.155V112.371ZM128.945 108.508L128.097 110.556L128.097 110.556L128.945 108.508ZM112.479 97.5058L114.047 95.9384L112.479 97.5058ZM101.477 81.0399L99.4294 81.8882H99.4294L101.477 81.0399ZM97.6138 61.6172H99.8304H97.6138ZM112.479 25.7286L110.912 24.1612L112.479 25.7286ZM141.669 45.4439C143.793 44.5642 146.069 44.1114 148.368 44.1114L148.368 39.6783C145.487 39.6783 142.634 40.2457 139.972 41.3483L141.669 45.4439ZM135.99 49.2387C137.615 47.6131 139.545 46.3237 141.669 45.4439L139.972 41.3483C137.311 42.4508 134.892 44.0668 132.855 46.104L135.99 49.2387ZM132.195 54.918C133.074 52.7941 134.364 50.8643 135.99 49.2387L132.855 46.104C130.818 48.1412 129.202 50.5598 128.099 53.2215L132.195 54.918ZM130.862 61.6172C130.862 59.3183 131.315 57.0419 132.195 54.918L128.099 53.2215C126.997 55.8833 126.429 58.7361 126.429 61.6172H130.862ZM132.195 68.3164C131.315 66.1925 130.862 63.9161 130.862 61.6172H126.429C126.429 64.4982 126.997 67.3511 128.099 70.0128L132.195 68.3164ZM135.989 73.9957C134.364 72.3701 133.074 70.4403 132.195 68.3164L128.099 70.0128C129.202 72.6746 130.818 75.0931 132.855 77.1303L135.989 73.9957ZM141.669 77.7904C139.545 76.9107 137.615 75.6212 135.989 73.9957L132.855 77.1303C134.892 79.1676 137.311 80.7836 139.972 81.8861L141.669 77.7904ZM148.368 79.123C146.069 79.123 143.793 78.6702 141.669 77.7904L139.972 81.8861C142.634 82.9886 145.487 83.5561 148.368 83.5561V79.123ZM155.067 77.7905C152.943 78.6702 150.667 79.123 148.368 79.123V83.5561C151.249 83.5561 154.102 82.9886 156.764 81.8861L155.067 77.7905ZM160.746 73.9957C159.121 75.6212 157.191 76.9107 155.067 77.7905L156.764 81.8861C159.425 80.7836 161.844 79.1676 163.881 77.1304L160.746 73.9957ZM164.541 68.3164C163.662 70.4403 162.372 72.3701 160.746 73.9957L163.881 77.1304C165.918 75.0931 167.534 72.6746 168.637 70.0128L164.541 68.3164ZM165.874 61.6172C165.874 63.9161 165.421 66.1925 164.541 68.3164L168.637 70.0128C169.739 67.3511 170.307 64.4982 170.307 61.6172H165.874ZM164.541 54.918C165.421 57.0419 165.874 59.3183 165.874 61.6172H170.307C170.307 58.7361 169.739 55.8833 168.637 53.2215L164.541 54.918ZM160.746 49.2387C162.372 50.8643 163.662 52.7941 164.541 54.918L168.637 53.2215C167.534 50.5598 165.918 48.1412 163.881 46.104L160.746 49.2387ZM155.067 45.4439C157.191 46.3237 159.121 47.6131 160.746 49.2387L163.881 46.104C161.844 44.0668 159.425 42.4508 156.764 41.3483L155.067 45.4439ZM148.368 44.1114C150.667 44.1114 152.943 44.5642 155.067 45.4439L156.764 41.3483C154.102 40.2457 151.249 39.6783 148.368 39.6783V44.1114ZM148.368 8.64648C141.412 8.64648 134.524 10.0166 128.097 12.6786L129.793 16.7743C135.682 14.335 141.994 13.0796 148.368 13.0796L148.368 8.64648ZM168.639 12.6786C162.212 10.0166 155.324 8.64648 148.368 8.64648V13.0796C154.742 13.0796 161.054 14.3351 166.943 16.7743L168.639 12.6786ZM185.824 24.1612C180.905 19.2425 175.066 15.3407 168.639 12.6786L166.943 16.7743C172.831 19.2135 178.182 22.7888 182.689 27.2959L185.824 24.1612ZM197.307 41.3462C194.645 34.9195 190.743 29.08 185.824 24.1612L182.689 27.2959C187.196 31.8031 190.772 37.1538 193.211 43.0427L197.307 41.3462ZM201.339 61.6172C201.339 54.661 199.969 47.7729 197.307 41.3462L193.211 43.0427C195.65 48.9315 196.906 55.2431 196.906 61.6172L201.339 61.6172ZM197.307 81.8882C199.969 75.4615 201.339 68.5734 201.339 61.6172H196.906C196.906 67.9912 195.65 74.3029 193.211 80.1917L197.307 81.8882ZM185.824 99.0731C190.743 94.1544 194.645 88.3149 197.307 81.8882L193.211 80.1917C190.772 86.0806 187.196 91.4313 182.689 95.9384L185.824 99.0731ZM168.639 110.556C175.066 107.894 180.905 103.992 185.824 99.0731L182.689 95.9384C178.182 100.446 172.831 104.021 166.943 106.46L168.639 110.556ZM148.368 114.588C155.324 114.588 162.212 113.218 168.639 110.556L166.943 106.46C161.054 108.899 154.742 110.155 148.368 110.155L148.368 114.588ZM128.097 110.556C134.524 113.218 141.412 114.588 148.368 114.588V110.155C141.994 110.155 135.682 108.899 129.793 106.46L128.097 110.556ZM110.912 99.0731C115.831 103.992 121.67 107.894 128.097 110.556L129.793 106.46C123.905 104.021 118.554 100.446 114.047 95.9384L110.912 99.0731ZM99.4294 81.8882C102.091 88.3149 105.993 94.1543 110.912 99.0731L114.047 95.9384C109.54 91.4313 105.964 86.0805 103.525 80.1917L99.4294 81.8882ZM95.3973 61.6172C95.3973 68.5734 96.7674 75.4615 99.4294 81.8882L103.525 80.1917C101.086 74.3028 99.8304 67.9912 99.8304 61.6172L95.3973 61.6172ZM99.4294 41.3461C96.7674 47.7728 95.3973 54.6609 95.3973 61.6172L99.8304 61.6172C99.8304 55.2431 101.086 48.9315 103.525 43.0426L99.4294 41.3461ZM110.912 24.1612C105.993 29.08 102.091 34.9194 99.4294 41.3461L103.525 43.0426C105.964 37.1538 109.54 31.803 114.047 27.2959L110.912 24.1612ZM128.097 12.6786C121.67 15.3406 115.831 19.2424 110.912 24.1612L114.047 27.2959C118.554 22.7888 123.905 19.2135 129.793 16.7743L128.097 12.6786Z" fill="#F8B64C"/>
</g>
<defs>
<filter id="filter0_d_94_4028" x="91.3973" y="8.64648" width="113.941" height="113.941" filterUnits="userSpaceOnUse" color-interpolation-filters="sRGB">
<feFlood flood-opacity="0" result="BackgroundImageFix"/>
<feColorMatrix in="SourceAlpha" type="matrix" values="0 0 0 0 0 0 0 0 0 0 0 0 0 0 0 0 0 0 127 0" result="hardAlpha"/>
<feOffset dy="4"/>
<feGaussianBlur stdDeviation="2"/>
<feComposite in2="hardAlpha" operator="out"/>
<feColorMatrix type="matrix" values="0 0 0 0 0 0 0 0 0 0 0 0 0 0 0 0 0 0 0.25 0"/>
<feBlend mode="normal" in2="BackgroundImageFix" result="effect1_dropShadow_94_4028"/>
<feBlend mode="normal" in="SourceGraphic" in2="effect1_dropShadow_94_4028" result="shape"/>
</filter>
</defs>
</svg>
