<svg width="97" height="58" viewBox="0 0 97 58" fill="none" xmlns="http://www.w3.org/2000/svg">
<path d="M15.012 16.253H19.008V26H15.714V24.866C14.4 25.838 12.708 26.324 10.638 26.324C8.892 26.324 7.29 25.946 5.832 25.19C4.374 24.434 3.213 23.336 2.349 21.896C1.485 20.438 1.053 18.71 1.053 16.712C1.053 14.786 1.494 13.076 2.376 11.582C3.276 10.07 4.518 8.891 6.102 8.045C7.686 7.199 9.468 6.776 11.448 6.776C13.104 6.776 14.607 7.055 15.957 7.613C17.307 8.171 18.441 8.981 19.359 10.043L16.551 12.635C15.201 11.213 13.572 10.502 11.664 10.502C10.458 10.502 9.387 10.763 8.451 11.285C7.515 11.789 6.786 12.509 6.264 13.445C5.742 14.381 5.481 15.461 5.481 16.685C5.481 17.963 5.733 19.052 6.237 19.952C6.759 20.852 7.452 21.536 8.316 22.004C9.18 22.454 10.125 22.679 11.151 22.679C12.681 22.679 13.968 22.247 15.012 21.383V16.253ZM38.5151 24.38C37.6151 24.992 36.4811 25.469 35.1131 25.811C33.7631 26.153 32.3231 26.324 30.7931 26.324C28.8851 26.324 27.2651 26.09 25.9331 25.622C24.6011 25.136 23.5931 24.47 22.9091 23.624C22.2251 22.76 21.8831 21.779 21.8831 20.681C21.8831 19.673 22.1621 18.782 22.7201 18.008C23.2781 17.234 24.0431 16.658 25.0151 16.28C24.2771 15.884 23.7011 15.344 23.2871 14.66C22.8911 13.976 22.6931 13.211 22.6931 12.365C22.6931 11.339 23.0081 10.403 23.6381 9.557C24.2681 8.711 25.2221 8.036 26.5001 7.532C27.7781 7.028 29.3441 6.776 31.1981 6.776C32.4221 6.776 33.6191 6.902 34.7891 7.154C35.9591 7.388 36.9761 7.712 37.8401 8.126L36.6251 11.474C34.9691 10.7 33.2141 10.313 31.3601 10.313C29.9561 10.313 28.8941 10.529 28.1741 10.961C27.4721 11.375 27.1211 11.942 27.1211 12.662C27.1211 13.328 27.3551 13.841 27.8231 14.201C28.3091 14.543 29.0381 14.714 30.0101 14.714H35.1671V18.17H29.7401C28.6421 18.17 27.7961 18.359 27.2021 18.737C26.6081 19.115 26.3111 19.664 26.3111 20.384C26.3111 21.14 26.6891 21.734 27.4451 22.166C28.2191 22.58 29.3981 22.787 30.9821 22.787C32.0981 22.787 33.2141 22.643 34.3301 22.355C35.4461 22.049 36.3911 21.626 37.1651 21.086L38.5151 24.38ZM54.6917 12.392C53.0717 11.456 51.3347 10.853 49.4807 10.583V26H45.1067V10.583C43.2527 10.853 41.5067 11.456 39.8687 12.392L38.3837 9.125C39.6797 8.351 41.0837 7.766 42.5957 7.37C44.1077 6.974 45.6647 6.776 47.2667 6.776C48.8867 6.776 50.4527 6.974 51.9647 7.37C53.4947 7.766 54.8987 8.351 56.1767 9.125L54.6917 12.392ZM72.2659 10.61V22.49H75.5329V26H64.5979V22.49H67.8919V10.61H64.5979V7.1H75.5329V10.61H72.2659ZM92.6077 12.392C90.9877 11.456 89.2507 10.853 87.3967 10.583V26H83.0227V10.583C81.1687 10.853 79.4227 11.456 77.7847 12.392L76.2997 9.125C77.5957 8.351 78.9997 7.766 80.5117 7.37C82.0237 6.974 83.5807 6.776 85.1827 6.776C86.8027 6.776 88.3687 6.974 89.8807 7.37C91.4107 7.766 92.8147 8.351 94.0927 9.125L92.6077 12.392Z" fill="black"/>
<path d="M15.012 16.253V13.753H12.512V16.253H15.012ZM19.008 16.253H21.508V13.753H19.008V16.253ZM19.008 26V28.5H21.508V26H19.008ZM15.714 26H13.214V28.5H15.714V26ZM15.714 24.866H18.214V19.907L14.2272 22.8561L15.714 24.866ZM5.832 25.19L4.68121 27.4094L4.68121 27.4094L5.832 25.19ZM2.349 21.896L0.198239 23.1705L0.205268 23.1822L2.349 21.896ZM2.376 11.582L0.227754 10.3033L0.223168 10.311L2.376 11.582ZM15.957 7.613L16.912 5.30258L16.912 5.30258L15.957 7.613ZM19.359 10.043L21.0547 11.88L22.8327 10.2387L21.2503 8.40812L19.359 10.043ZM16.551 12.635L14.7379 14.3563L16.4353 16.1441L18.2467 14.472L16.551 12.635ZM8.451 11.285L9.63625 13.4862L9.65253 13.4774L9.66867 13.4684L8.451 11.285ZM6.264 13.445L4.08059 12.2273L4.08059 12.2273L6.264 13.445ZM6.237 19.952L4.05573 21.1735L4.06495 21.19L4.07442 21.2063L6.237 19.952ZM8.316 22.004L7.12529 24.2022L7.14315 24.2119L7.16116 24.2213L8.316 22.004ZM15.012 21.383L16.6059 23.309L17.512 22.5591V21.383H15.012ZM15.012 18.753H19.008V13.753H15.012V18.753ZM16.508 16.253V26H21.508V16.253H16.508ZM19.008 23.5H15.714V28.5H19.008V23.5ZM18.214 26V24.866H13.214V26H18.214ZM14.2272 22.8561C13.4465 23.4337 12.3167 23.824 10.638 23.824V28.824C13.0993 28.824 15.3535 28.2423 17.2008 26.8759L14.2272 22.8561ZM10.638 23.824C9.26655 23.824 8.06284 23.5306 6.98279 22.9706L4.68121 27.4094C6.51716 28.3614 8.51745 28.824 10.638 28.824V23.824ZM6.98279 22.9706C5.94543 22.4327 5.12419 21.6622 4.49273 20.6098L0.205268 23.1822C1.30181 25.0098 2.80257 26.4353 4.68121 27.4094L6.98279 22.9706ZM4.49973 20.6215C3.90237 19.6135 3.553 18.3425 3.553 16.712H-1.447C-1.447 19.0775 -0.932374 21.2625 0.198271 23.1705L4.49973 20.6215ZM3.553 16.712C3.553 15.1825 3.8985 13.9206 4.52883 12.8529L0.223168 10.311C-0.910503 12.2313 -1.447 14.3895 -1.447 16.712H3.553ZM4.52423 12.8607C5.18622 11.7486 6.08894 10.8862 7.27977 10.2502L4.92423 5.83981C2.94706 6.8958 1.36579 8.39142 0.227768 10.3033L4.52423 12.8607ZM7.27977 10.2502C8.46526 9.61703 9.83586 9.276 11.448 9.276V4.276C9.10014 4.276 6.90674 4.78097 4.92423 5.83981L7.27977 10.2502ZM11.448 9.276C12.8199 9.276 13.9927 9.50622 15.002 9.92342L16.912 5.30258C15.2213 4.60378 13.3881 4.276 11.448 4.276V9.276ZM15.002 9.92342C16.0066 10.3386 16.8153 10.9232 17.4677 11.6779L21.2503 8.40812C20.0667 7.03884 18.6074 6.00337 16.912 5.30258L15.002 9.92342ZM17.6633 8.20599L14.8553 10.798L18.2467 14.472L21.0547 11.88L17.6633 8.20599ZM18.3641 10.9137C16.5568 9.01005 14.2787 8.002 11.664 8.002V13.002C12.8653 13.002 13.8452 13.4159 14.7379 14.3563L18.3641 10.9137ZM11.664 8.002C10.0861 8.002 8.58634 8.34703 7.23333 9.10159L9.66867 13.4684C10.1877 13.179 10.8299 13.002 11.664 13.002V8.002ZM7.26575 9.08382C5.90647 9.81574 4.83275 10.8786 4.08059 12.2273L8.44741 14.6627C8.73926 14.1394 9.12353 13.7623 9.63625 13.4862L7.26575 9.08382ZM4.08059 12.2273C3.32301 13.5857 2.981 15.0961 2.981 16.685H7.981C7.981 15.8259 8.16099 15.1763 8.44741 14.6627L4.08059 12.2273ZM2.981 16.685C2.981 18.2897 3.29839 19.8211 4.05573 21.1735L8.41827 18.7305C8.16761 18.2829 7.981 17.6363 7.981 16.685H2.981ZM4.07442 21.2063C4.81315 22.48 5.83248 23.502 7.12529 24.2022L9.50671 19.8058C9.07152 19.57 8.70486 19.224 8.39958 18.6977L4.07442 21.2063ZM7.16116 24.2213C8.40083 24.8669 9.74498 25.179 11.151 25.179V20.179C10.505 20.179 9.95917 20.0411 9.47084 19.7867L7.16116 24.2213ZM11.151 25.179C13.1833 25.179 15.0559 24.5918 16.6059 23.309L13.4181 19.457C12.8801 19.9022 12.1787 20.179 11.151 20.179V25.179ZM17.512 21.383V16.253H12.512V21.383H17.512ZM38.5151 24.38L39.9209 26.4473L41.597 25.3075L40.8283 23.4319L38.5151 24.38ZM35.1131 25.811L34.5067 23.3856L34.4991 23.3876L35.1131 25.811ZM25.9331 25.622L25.0762 27.9706L25.0902 27.9757L25.1044 27.9807L25.9331 25.622ZM22.9091 23.624L20.949 25.1758L20.9569 25.1858L20.965 25.1958L22.9091 23.624ZM22.7201 18.008L24.748 19.47L24.748 19.47L22.7201 18.008ZM25.0151 16.28L25.9212 18.61L30.9791 16.643L26.1971 14.0771L25.0151 16.28ZM23.2871 14.66L21.1235 15.9126L21.1357 15.9337L21.1483 15.9545L23.2871 14.66ZM23.6381 9.557L21.633 8.06383L21.633 8.06383L23.6381 9.557ZM26.5001 7.532L25.5829 5.20632L25.5829 5.20632L26.5001 7.532ZM34.7891 7.154L34.2627 9.59795L34.2807 9.60184L34.2988 9.60545L34.7891 7.154ZM37.8401 8.126L40.1901 8.97883L40.9627 6.85005L38.9204 5.87146L37.8401 8.126ZM36.6251 11.474L35.5665 13.7388L38.0427 14.8962L38.9751 12.3268L36.6251 11.474ZM28.1741 10.961L29.444 13.1144L29.4522 13.1096L29.4603 13.1047L28.1741 10.961ZM27.8231 14.201L26.2988 16.1826L26.3409 16.2149L26.3843 16.2455L27.8231 14.201ZM35.1671 14.714H37.6671V12.214H35.1671V14.714ZM35.1671 18.17V20.67H37.6671V18.17H35.1671ZM27.2021 18.737L25.8599 16.6278L25.8599 16.6278L27.2021 18.737ZM27.4451 22.166L26.2047 24.3366L26.2351 24.354L26.2659 24.3705L27.4451 22.166ZM34.3301 22.355L34.9548 24.7757L34.973 24.771L34.9912 24.766L34.3301 22.355ZM37.1651 21.086L39.4783 20.1379L38.2946 17.2496L35.7346 19.0357L37.1651 21.086ZM37.1093 22.3127C36.5126 22.7184 35.6694 23.095 34.5067 23.3856L35.7194 28.2364C37.2928 27.843 38.7175 27.2656 39.9209 26.4473L37.1093 22.3127ZM34.4991 23.3876C33.3685 23.674 32.1362 23.824 30.7931 23.824V28.824C32.51 28.824 34.1577 28.632 35.727 28.2344L34.4991 23.3876ZM30.7931 23.824C29.0747 23.824 27.7523 23.6114 26.7618 23.2633L25.1044 27.9807C26.7779 28.5686 28.6955 28.824 30.7931 28.824V23.824ZM26.79 23.2734C25.7577 22.8968 25.1778 22.4537 24.8532 22.0522L20.965 25.1958C22.0084 26.4863 23.4444 27.3752 25.0762 27.9706L26.79 23.2734ZM24.8692 22.0722C24.5335 21.6482 24.3831 21.2135 24.3831 20.681H19.3831C19.3831 22.3445 19.9167 23.8718 20.949 25.1758L24.8692 22.0722ZM24.3831 20.681C24.3831 20.1663 24.5148 19.7935 24.748 19.47L20.6921 16.546C19.8093 17.7705 19.3831 19.1796 19.3831 20.681H24.3831ZM24.748 19.47C24.9976 19.1238 25.3556 18.83 25.9212 18.61L24.109 13.95C22.7306 14.486 21.5586 15.3442 20.6921 16.546L24.748 19.47ZM26.1971 14.0771C25.834 13.8823 25.5968 13.6479 25.4258 13.3655L21.1483 15.9545C21.8054 17.0401 22.7201 17.8857 23.833 18.4829L26.1971 14.0771ZM25.4506 13.4074C25.2906 13.1309 25.1931 12.8032 25.1931 12.365H20.1931C20.1931 13.6188 20.4916 14.8211 21.1235 15.9126L25.4506 13.4074ZM25.1931 12.365C25.1931 11.893 25.3248 11.4777 25.6432 11.0502L21.633 8.06383C20.6913 9.32833 20.1931 10.785 20.1931 12.365H25.1931ZM25.6432 11.0502C25.9228 10.6747 26.4439 10.2416 27.4172 9.85768L25.5829 5.20632C24.0003 5.83044 22.6134 6.74732 21.633 8.06383L25.6432 11.0502ZM27.4172 9.85768C28.3206 9.50143 29.555 9.276 31.1981 9.276V4.276C29.1332 4.276 27.2356 4.55457 25.5829 5.20632L27.4172 9.85768ZM31.1981 9.276C32.2492 9.276 33.2696 9.38405 34.2627 9.59795L35.3155 4.71005C33.9686 4.41995 32.595 4.276 31.1981 4.276V9.276ZM34.2988 9.60545C35.3123 9.80815 36.1227 10.0753 36.7598 10.3805L38.9204 5.87146C37.8294 5.34871 36.6059 4.96785 35.2794 4.70255L34.2988 9.60545ZM35.49 7.27316L34.275 10.6212L38.9751 12.3268L40.1901 8.97883L35.49 7.27316ZM37.6836 9.20917C35.6914 8.27801 33.5745 7.813 31.3601 7.813V12.813C32.8537 12.813 34.2468 13.122 35.5665 13.7388L37.6836 9.20917ZM31.3601 7.813C29.7736 7.813 28.1766 8.044 26.8878 8.81727L29.4603 13.1047C29.6115 13.014 30.1386 12.813 31.3601 12.813V7.813ZM26.9041 8.80758C25.5603 9.60009 24.6211 10.9257 24.6211 12.662H29.6211C29.6211 12.6867 29.6178 12.7387 29.5988 12.8085C29.5794 12.8795 29.5488 12.9499 29.51 13.0126C29.43 13.1419 29.3654 13.1608 29.444 13.1144L26.9041 8.80758ZM24.6211 12.662C24.6211 13.9909 25.131 15.2843 26.2988 16.1826L29.3474 12.2194C29.421 12.2761 29.5107 12.3764 29.5711 12.5087C29.6272 12.6316 29.6211 12.7011 29.6211 12.662H24.6211ZM26.3843 16.2455C27.483 17.0187 28.8213 17.214 30.0101 17.214V12.214C29.6627 12.214 29.4368 12.1827 29.3053 12.1518C29.1744 12.1211 29.1848 12.1023 29.2618 12.1565L26.3843 16.2455ZM30.0101 17.214H35.1671V12.214H30.0101V17.214ZM32.6671 14.714V18.17H37.6671V14.714H32.6671ZM35.1671 15.67H29.7401V20.67H35.1671V15.67ZM29.7401 15.67C28.4113 15.67 27.0208 15.8891 25.8599 16.6278L28.5443 20.8462C28.5714 20.8289 28.8729 20.67 29.7401 20.67V15.67ZM25.8599 16.6278C24.5252 17.4772 23.8111 18.8327 23.8111 20.384H28.8111C28.8111 20.3751 28.8103 20.4783 28.7327 20.6218C28.6538 20.7677 28.5597 20.8363 28.5443 20.8462L25.8599 16.6278ZM23.8111 20.384C23.8111 22.1892 24.8115 23.5404 26.2047 24.3366L28.6854 19.9954C28.5779 19.9339 28.629 19.9369 28.7037 20.0543C28.7403 20.1118 28.7702 20.1781 28.7894 20.2466C28.8082 20.3137 28.8111 20.3629 28.8111 20.384H23.8111ZM26.2659 24.3705C27.5889 25.0781 29.2685 25.287 30.9821 25.287V20.287C29.5277 20.287 28.8493 20.0819 28.6242 19.9615L26.2659 24.3705ZM30.9821 25.287C32.3156 25.287 33.6414 25.1146 34.9548 24.7757L33.7054 19.9343C32.7867 20.1714 31.8805 20.287 30.9821 20.287V25.287ZM34.9912 24.766C36.3223 24.401 37.5414 23.8718 38.5955 23.1363L35.7346 19.0357C35.2407 19.3802 34.5699 19.697 33.669 19.944L34.9912 24.766ZM34.8518 22.0341L36.2018 25.3281L40.8283 23.4319L39.4783 20.1379L34.8518 22.0341ZM54.6917 12.392L53.441 14.5567L55.8272 15.9354L56.9676 13.4265L54.6917 12.392ZM49.4807 10.583L49.8409 8.1091L46.9807 7.69255V10.583H49.4807ZM49.4807 26V28.5H51.9807V26H49.4807ZM45.1067 26H42.6067V28.5H45.1067V26ZM45.1067 10.583H47.6067V7.69255L44.7464 8.1091L45.1067 10.583ZM39.8687 12.392L37.5927 13.4265L38.7277 15.9234L41.109 14.5626L39.8687 12.392ZM38.3837 9.125L37.1018 6.97864L35.1828 8.1247L36.1077 10.1595L38.3837 9.125ZM42.5957 7.37L41.9623 4.95157L41.9623 4.95157L42.5957 7.37ZM51.9647 7.37L51.3313 9.78844L51.3382 9.79025L51.9647 7.37ZM56.1767 9.125L58.4526 10.1595L59.3718 8.13731L57.4718 6.9866L56.1767 9.125ZM55.9424 10.2273C54.0475 9.1325 52.0082 8.42472 49.8409 8.1091L49.1204 13.0569C50.6611 13.2813 52.0959 13.7795 53.441 14.5567L55.9424 10.2273ZM46.9807 10.583V26H51.9807V10.583H46.9807ZM49.4807 23.5H45.1067V28.5H49.4807V23.5ZM47.6067 26V10.583H42.6067V26H47.6067ZM44.7464 8.1091C42.5804 8.42453 40.5362 9.13119 38.6283 10.2214L41.109 14.5626C42.4772 13.7808 43.9249 13.2815 45.4669 13.0569L44.7464 8.1091ZM42.1446 11.3575L40.6596 8.09049L36.1077 10.1595L37.5927 13.4265L42.1446 11.3575ZM39.6655 11.2714C40.7522 10.6224 41.9368 10.1269 43.2291 9.78843L41.9623 4.95157C40.2305 5.40513 38.6071 6.07962 37.1018 6.97864L39.6655 11.2714ZM43.2291 9.78843C44.5292 9.44793 45.873 9.276 47.2667 9.276V4.276C45.4563 4.276 43.6862 4.50007 41.9623 4.95157L43.2291 9.78843ZM47.2667 9.276C48.6807 9.276 50.0335 9.44853 51.3313 9.78843L52.5981 4.95157C50.8719 4.49947 49.0926 4.276 47.2667 4.276V9.276ZM51.3382 9.79025C52.6465 10.1288 53.8233 10.6225 54.8816 11.2634L57.4718 6.9866C55.9741 6.07955 54.3429 5.40316 52.5911 4.94975L51.3382 9.79025ZM53.9007 8.09049L52.4157 11.3575L56.9676 13.4265L58.4526 10.1595L53.9007 8.09049ZM72.2659 10.61V8.11H69.7659V10.61H72.2659ZM72.2659 22.49H69.7659V24.99H72.2659V22.49ZM75.5329 22.49H78.0329V19.99H75.5329V22.49ZM75.5329 26V28.5H78.0329V26H75.5329ZM64.5979 26H62.0979V28.5H64.5979V26ZM64.5979 22.49V19.99H62.0979V22.49H64.5979ZM67.8919 22.49V24.99H70.3919V22.49H67.8919ZM67.8919 10.61H70.3919V8.11H67.8919V10.61ZM64.5979 10.61H62.0979V13.11H64.5979V10.61ZM64.5979 7.1V4.6H62.0979V7.1H64.5979ZM75.5329 7.1H78.0329V4.6H75.5329V7.1ZM75.5329 10.61V13.11H78.0329V10.61H75.5329ZM69.7659 10.61V22.49H74.7659V10.61H69.7659ZM72.2659 24.99H75.5329V19.99H72.2659V24.99ZM73.0329 22.49V26H78.0329V22.49H73.0329ZM75.5329 23.5H64.5979V28.5H75.5329V23.5ZM67.0979 26V22.49H62.0979V26H67.0979ZM64.5979 24.99H67.8919V19.99H64.5979V24.99ZM70.3919 22.49V10.61H65.3919V22.49H70.3919ZM67.8919 8.11H64.5979V13.11H67.8919V8.11ZM67.0979 10.61V7.1H62.0979V10.61H67.0979ZM64.5979 9.6H75.5329V4.6H64.5979V9.6ZM73.0329 7.1V10.61H78.0329V7.1H73.0329ZM75.5329 8.11H72.2659V13.11H75.5329V8.11ZM92.6077 12.392L91.357 14.5567L93.7432 15.9354L94.8836 13.4265L92.6077 12.392ZM87.3967 10.583L87.757 8.1091L84.8967 7.69255V10.583H87.3967ZM87.3967 26V28.5H89.8967V26H87.3967ZM83.0227 26H80.5227V28.5H83.0227V26ZM83.0227 10.583H85.5227V7.69255L82.6624 8.1091L83.0227 10.583ZM77.7847 12.392L75.5088 13.4265L76.6437 15.9234L79.025 14.5626L77.7847 12.392ZM76.2997 9.125L75.0178 6.97864L73.0989 8.1247L74.0238 10.1595L76.2997 9.125ZM80.5117 7.37L79.8783 4.95157L79.8783 4.95157L80.5117 7.37ZM89.8807 7.37L89.2473 9.78844L89.2543 9.79025L89.8807 7.37ZM94.0927 9.125L96.3686 10.1595L97.2878 8.13731L95.3878 6.9866L94.0927 9.125ZM93.8584 10.2273C91.9635 9.1325 89.9242 8.42472 87.757 8.1091L87.0364 13.0569C88.5771 13.2813 90.0119 13.7795 91.357 14.5567L93.8584 10.2273ZM84.8967 10.583V26H89.8967V10.583H84.8967ZM87.3967 23.5H83.0227V28.5H87.3967V23.5ZM85.5227 26V10.583H80.5227V26H85.5227ZM82.6624 8.1091C80.4964 8.42453 78.4522 9.13119 76.5443 10.2214L79.025 14.5626C80.3932 13.7808 81.8409 13.2815 83.383 13.0569L82.6624 8.1091ZM80.0606 11.3575L78.5756 8.09049L74.0238 10.1595L75.5088 13.4265L80.0606 11.3575ZM77.5815 11.2714C78.6682 10.6224 79.8528 10.1269 81.1451 9.78843L79.8783 4.95157C78.1465 5.40513 76.5232 6.07962 75.0178 6.97864L77.5815 11.2714ZM81.1451 9.78843C82.4452 9.44793 83.7891 9.276 85.1827 9.276V4.276C83.3723 4.276 81.6022 4.50007 79.8783 4.95157L81.1451 9.78843ZM85.1827 9.276C86.5967 9.276 87.9495 9.44853 89.2473 9.78843L90.5141 4.95157C88.7879 4.49947 87.0086 4.276 85.1827 4.276V9.276ZM89.2543 9.79025C90.5625 10.1288 91.7393 10.6225 92.7976 11.2634L95.3878 6.9866C93.8901 6.07955 92.2589 5.40316 90.5071 4.94975L89.2543 9.79025ZM91.8168 8.09049L90.3318 11.3575L94.8836 13.4265L96.3686 10.1595L91.8168 8.09049Z" fill="white"/>
<path d="M2.49 34H12.03C14.31 34 16.32 34.44 18.06 35.32C19.82 36.18 21.18 37.4 22.14 38.98C23.12 40.56 23.61 42.4 23.61 44.5C23.61 46.6 23.12 48.44 22.14 50.02C21.18 51.6 19.82 52.83 18.06 53.71C16.32 54.57 14.31 55 12.03 55H2.49V34ZM11.79 51.01C13.89 51.01 15.56 50.43 16.8 49.27C18.06 48.09 18.69 46.5 18.69 44.5C18.69 42.5 18.06 40.92 16.8 39.76C15.56 38.58 13.89 37.99 11.79 37.99H7.35V51.01H11.79ZM37.4452 55.36C35.2652 55.36 33.2952 54.89 31.5352 53.95C29.7952 53.01 28.4252 51.72 27.4252 50.08C26.4452 48.42 25.9552 46.56 25.9552 44.5C25.9552 42.44 26.4452 40.59 27.4252 38.95C28.4252 37.29 29.7952 35.99 31.5352 35.05C33.2952 34.11 35.2652 33.64 37.4452 33.64C39.6252 33.64 41.5852 34.11 43.3252 35.05C45.0652 35.99 46.4352 37.29 47.4352 38.95C48.4352 40.59 48.9352 42.44 48.9352 44.5C48.9352 46.56 48.4352 48.42 47.4352 50.08C46.4352 51.72 45.0652 53.01 43.3252 53.95C41.5852 54.89 39.6252 55.36 37.4452 55.36ZM37.4452 51.22C38.6852 51.22 39.8052 50.94 40.8052 50.38C41.8052 49.8 42.5852 49 43.1452 47.98C43.7252 46.96 44.0152 45.8 44.0152 44.5C44.0152 43.2 43.7252 42.04 43.1452 41.02C42.5852 40 41.8052 39.21 40.8052 38.65C39.8052 38.07 38.6852 37.78 37.4452 37.78C36.2052 37.78 35.0852 38.07 34.0852 38.65C33.0852 39.21 32.2952 40 31.7152 41.02C31.1552 42.04 30.8752 43.2 30.8752 44.5C30.8752 45.8 31.1552 46.96 31.7152 47.98C32.2952 49 33.0852 49.8 34.0852 50.38C35.0852 50.94 36.2052 51.22 37.4452 51.22ZM63.7177 33.64C66.2177 33.64 68.1677 34.43 69.5677 36.01C70.9677 37.57 71.6677 39.8 71.6677 42.7V55H66.8077V42.85C66.8077 41.17 66.4077 39.91 65.6077 39.07C64.8277 38.21 63.7377 37.78 62.3377 37.78C60.8577 37.78 59.6677 38.24 58.7677 39.16C57.8877 40.06 57.4477 41.4 57.4477 43.18V55H52.5877V34H57.2977V36.55C58.0177 35.59 58.9177 34.87 59.9977 34.39C61.0777 33.89 62.3177 33.64 63.7177 33.64ZM93.6246 53.2C92.6246 53.88 91.3646 54.41 89.8446 54.79C88.3446 55.17 86.7446 55.36 85.0446 55.36C82.9246 55.36 81.1246 55.1 79.6446 54.58C78.1646 54.04 77.0446 53.3 76.2846 52.36C75.5246 51.4 75.1446 50.31 75.1446 49.09C75.1446 47.97 75.4546 46.98 76.0746 46.12C76.6946 45.26 77.5446 44.62 78.6246 44.2C77.8046 43.76 77.1646 43.16 76.7046 42.4C76.2646 41.64 76.0446 40.79 76.0446 39.85C76.0446 38.71 76.3946 37.67 77.0946 36.73C77.7946 35.79 78.8546 35.04 80.2746 34.48C81.6946 33.92 83.4346 33.64 85.4946 33.64C86.8546 33.64 88.1846 33.78 89.4846 34.06C90.7846 34.32 91.9146 34.68 92.8746 35.14L91.5246 38.86C89.6846 38 87.7346 37.57 85.6746 37.57C84.1146 37.57 82.9346 37.81 82.1346 38.29C81.3546 38.75 80.9646 39.38 80.9646 40.18C80.9646 40.92 81.2246 41.49 81.7446 41.89C82.2846 42.27 83.0946 42.46 84.1746 42.46H89.9046V46.3H83.8746C82.6546 46.3 81.7146 46.51 81.0546 46.93C80.3946 47.35 80.0646 47.96 80.0646 48.76C80.0646 49.6 80.4846 50.26 81.3246 50.74C82.1846 51.2 83.4946 51.43 85.2546 51.43C86.4946 51.43 87.7346 51.27 88.9746 50.95C90.2146 50.61 91.2646 50.14 92.1246 49.54L93.6246 53.2Z" fill="black"/>
<path d="M2.49 34V31.5H-0.00999987V34H2.49ZM18.06 35.32L16.9317 37.5509L16.947 37.5587L16.9624 37.5662L18.06 35.32ZM22.14 38.98L20.0035 40.2781L20.0094 40.288L20.0155 40.2977L22.14 38.98ZM22.14 50.02L20.0155 48.7023L20.0094 48.712L20.0035 48.7218L22.14 50.02ZM18.06 53.71L19.1677 55.9512L19.178 55.9461L18.06 53.71ZM2.49 55H-0.00999987V57.5H2.49V55ZM16.8 49.27L18.5079 51.0957L18.5089 51.0947L16.8 49.27ZM16.8 39.76L15.0766 41.571L15.0915 41.5853L15.1067 41.5992L16.8 39.76ZM7.35 37.99V35.49H4.85V37.99H7.35ZM7.35 51.01H4.85V53.51H7.35V51.01ZM2.49 36.5H12.03V31.5H2.49V36.5ZM12.03 36.5C13.9843 36.5 15.5962 36.8755 16.9317 37.5509L19.1883 33.0891C17.0438 32.0045 14.6357 31.5 12.03 31.5V36.5ZM16.9624 37.5662C18.3194 38.2292 19.307 39.1319 20.0035 40.2781L24.2765 37.6818C23.053 35.6681 21.3206 34.1308 19.1576 33.0738L16.9624 37.5662ZM20.0155 40.2977C20.7194 41.4326 21.11 42.8038 21.11 44.5H26.11C26.11 41.9962 25.5206 39.6874 24.2645 37.6623L20.0155 40.2977ZM21.11 44.5C21.11 46.1962 20.7194 47.5674 20.0155 48.7023L24.2645 51.3377C25.5206 49.3126 26.11 47.0038 26.11 44.5H21.11ZM20.0035 48.7218C19.3038 49.8733 18.3092 50.7903 16.942 51.4739L19.178 55.9461C21.3308 54.8697 23.0562 53.3267 24.2765 51.3182L20.0035 48.7218ZM16.9523 51.4688C15.612 52.1312 13.9926 52.5 12.03 52.5V57.5C14.6274 57.5 17.028 57.0088 19.1677 55.9512L16.9523 51.4688ZM12.03 52.5H2.49V57.5H12.03V52.5ZM4.99 55V34H-0.00999987V55H4.99ZM11.79 53.51C14.3667 53.51 16.7012 52.7858 18.5079 51.0957L15.0921 47.4443C14.4188 48.0742 13.4133 48.51 11.79 48.51V53.51ZM18.5089 51.0947C20.3549 49.3659 21.19 47.0716 21.19 44.5H16.19C16.19 45.9284 15.7651 46.8141 15.0911 47.4453L18.5089 51.0947ZM21.19 44.5C21.19 41.9294 20.3548 39.6345 18.4933 37.9208L15.1067 41.5992C15.7652 42.2055 16.19 43.0706 16.19 44.5H21.19ZM18.5234 37.949C16.7182 36.2311 14.3781 35.49 11.79 35.49V40.49C13.4019 40.49 14.4018 40.9289 15.0766 41.571L18.5234 37.949ZM11.79 35.49H7.35V40.49H11.79V35.49ZM4.85 37.99V51.01H9.85V37.99H4.85ZM7.35 53.51H11.79V48.51H7.35V53.51ZM31.5352 53.95L30.3469 56.1496L30.3574 56.1552L31.5352 53.95ZM27.4252 50.08L25.2723 51.3509L25.2814 51.3663L25.2907 51.3815L27.4252 50.08ZM27.4252 38.95L25.2837 37.66L25.2791 37.6676L27.4252 38.95ZM31.5352 35.05L30.3574 32.8448L30.3469 32.8504L31.5352 35.05ZM47.4352 38.95L45.2937 40.24L45.3007 40.2515L47.4352 38.95ZM47.4352 50.08L49.5697 51.3815L49.5766 51.37L47.4352 50.08ZM43.3252 53.95L44.5134 56.1496L44.5134 56.1496L43.3252 53.95ZM40.8052 50.38L42.0267 52.5613L42.0431 52.552L42.0595 52.5426L40.8052 50.38ZM43.1452 47.98L40.9719 46.7442L40.9627 46.7605L40.9537 46.7769L43.1452 47.98ZM43.1452 41.02L40.9537 42.2231L40.9627 42.2395L40.9719 42.2558L43.1452 41.02ZM40.8052 38.65L39.5509 40.8126L39.5672 40.822L39.5836 40.8313L40.8052 38.65ZM34.0852 38.65L35.3067 40.8313L35.3231 40.822L35.3395 40.8126L34.0852 38.65ZM31.7152 41.02L29.5419 39.7842L29.5327 39.8005L29.5237 39.8169L31.7152 41.02ZM31.7152 47.98L29.5237 49.1831L29.5327 49.1995L29.5419 49.2158L31.7152 47.98ZM34.0852 50.38L32.8309 52.5426L32.8472 52.552L32.8636 52.5613L34.0852 50.38ZM37.4452 52.86C35.6371 52.86 34.0777 52.4737 32.7129 51.7448L30.3574 56.1552C32.5126 57.3063 34.8932 57.86 37.4452 57.86V52.86ZM32.7234 51.7504C31.3607 51.0143 30.3222 50.0291 29.5596 48.7785L25.2907 51.3815C26.5281 53.4109 28.2296 55.0057 30.3469 56.1496L32.7234 51.7504ZM29.578 48.8091C28.8409 47.5606 28.4552 46.1448 28.4552 44.5H23.4552C23.4552 46.9752 24.0494 49.2794 25.2723 51.3509L29.578 48.8091ZM28.4552 44.5C28.4552 42.855 28.8409 41.4545 29.5712 40.2324L25.2791 37.6676C24.0494 39.7255 23.4552 42.025 23.4552 44.5H28.4552ZM29.5666 40.24C30.331 38.9711 31.3683 37.9816 32.7234 37.2496L30.3469 32.8504C28.222 33.9984 26.5193 35.6089 25.2837 37.66L29.5666 40.24ZM32.7129 37.2552C34.0777 36.5263 35.6371 36.14 37.4452 36.14V31.14C34.8932 31.14 32.5126 31.6937 30.3574 32.8448L32.7129 37.2552ZM37.4452 36.14C39.2536 36.14 40.7982 36.5264 42.1369 37.2496L44.5134 32.8504C42.3721 31.6936 39.9967 31.14 37.4452 31.14V36.14ZM42.1369 37.2496C43.492 37.9816 44.5293 38.9711 45.2937 40.24L49.5766 37.66C48.341 35.6089 46.6383 33.9984 44.5134 32.8504L42.1369 37.2496ZM45.3007 40.2515C46.0442 41.471 46.4352 42.8646 46.4352 44.5H51.4352C51.4352 42.0154 50.8261 39.709 49.5696 37.6485L45.3007 40.2515ZM46.4352 44.5C46.4352 46.1352 46.0442 47.5441 45.2937 48.79L49.5766 51.37C50.8261 49.2959 51.4352 46.9848 51.4352 44.5H46.4352ZM45.3007 48.7785C44.5381 50.0291 43.4996 51.0143 42.1369 51.7504L44.5134 56.1496C46.6307 55.0057 48.3322 53.4109 49.5696 51.3815L45.3007 48.7785ZM42.1369 51.7504C40.7982 52.4736 39.2536 52.86 37.4452 52.86V57.86C39.9967 57.86 42.3721 57.3064 44.5134 56.1496L42.1369 51.7504ZM37.4452 53.72C39.0768 53.72 40.6232 53.3472 42.0267 52.5613L39.5836 48.1987C38.9871 48.5328 38.2935 48.72 37.4452 48.72V53.72ZM42.0595 52.5426C43.4561 51.7325 44.559 50.5996 45.3366 49.1831L40.9537 46.7769C40.6114 47.4004 40.1542 47.8675 39.5509 48.2174L42.0595 52.5426ZM45.3184 49.2158C46.135 47.7796 46.5152 46.1854 46.5152 44.5H41.5152C41.5152 45.4146 41.3153 46.1404 40.9719 46.7442L45.3184 49.2158ZM46.5152 44.5C46.5152 42.8146 46.135 41.2204 45.3184 39.7842L40.9719 42.2558C41.3153 42.8596 41.5152 43.5854 41.5152 44.5H46.5152ZM45.3366 39.8169C44.5549 38.393 43.4417 37.2612 42.0267 36.4687L39.5836 40.8313C40.1686 41.1588 40.6154 41.607 40.9537 42.2231L45.3366 39.8169ZM42.0595 36.4874C40.6507 35.6704 39.0926 35.28 37.4452 35.28V40.28C38.2777 40.28 38.9596 40.4696 39.5509 40.8126L42.0595 36.4874ZM37.4452 35.28C35.7977 35.28 34.2396 35.6704 32.8309 36.4874L35.3395 40.8126C35.9307 40.4696 36.6126 40.28 37.4452 40.28V35.28ZM32.8636 36.4687C31.4564 37.2568 30.3415 38.3782 29.5419 39.7842L33.8884 42.2558C34.2488 41.6218 34.7139 41.1632 35.3067 40.8313L32.8636 36.4687ZM29.5237 39.8169C28.7384 41.2472 28.3752 42.8296 28.3752 44.5H33.3752C33.3752 43.5704 33.5719 42.8328 33.9066 42.2231L29.5237 39.8169ZM28.3752 44.5C28.3752 46.1704 28.7384 47.7528 29.5237 49.1831L33.9066 46.7769C33.5719 46.1672 33.3752 45.4296 33.3752 44.5H28.3752ZM29.5419 49.2158C30.3373 50.6145 31.4419 51.737 32.8309 52.5426L35.3395 48.2174C34.7284 47.863 34.253 47.3855 33.8884 46.7442L29.5419 49.2158ZM32.8636 52.5613C34.2671 53.3472 35.8135 53.72 37.4452 53.72V48.72C36.5968 48.72 35.9032 48.5328 35.3067 48.1987L32.8636 52.5613ZM69.5677 36.01L67.6965 37.668L67.7018 37.6739L67.7071 37.6798L69.5677 36.01ZM71.6677 55V57.5H74.1677V55H71.6677ZM66.8077 55H64.3077V57.5H66.8077V55ZM65.6077 39.07L63.7559 40.7495L63.7763 40.7721L63.7973 40.7941L65.6077 39.07ZM58.7677 39.16L56.9806 37.4118L56.9801 37.4122L58.7677 39.16ZM57.4477 55V57.5H59.9477V55H57.4477ZM52.5877 55H50.0877V57.5H52.5877V55ZM52.5877 34V31.5H50.0877V34H52.5877ZM57.2977 34H59.7977V31.5H57.2977V34ZM57.2977 36.55H54.7977V44.05L59.2977 38.05L57.2977 36.55ZM59.9977 34.39L61.013 36.6745L61.0305 36.6667L61.048 36.6587L59.9977 34.39ZM63.7177 36.14C65.6467 36.14 66.8591 36.7229 67.6965 37.668L71.4388 34.352C69.4762 32.1371 66.7886 31.14 63.7177 31.14V36.14ZM67.7071 37.6798C68.5605 38.6308 69.1677 40.1792 69.1677 42.7H74.1677C74.1677 39.4208 73.3748 36.5092 71.4283 34.3402L67.7071 37.6798ZM69.1677 42.7V55H74.1677V42.7H69.1677ZM71.6677 52.5H66.8077V57.5H71.6677V52.5ZM69.3077 55V42.85H64.3077V55H69.3077ZM69.3077 42.85C69.3077 40.8143 68.825 38.8232 67.418 37.3459L63.7973 40.7941C63.9903 40.9968 64.3077 41.5257 64.3077 42.85H69.3077ZM67.4595 37.3905C66.1091 35.9016 64.2854 35.28 62.3377 35.28V40.28C63.1899 40.28 63.5462 40.5184 63.7559 40.7495L67.4595 37.3905ZM62.3377 35.28C60.2948 35.28 58.4225 35.9378 56.9806 37.4118L60.5547 40.9082C60.9128 40.5422 61.4205 40.28 62.3377 40.28V35.28ZM56.9801 37.4122C55.4829 38.9435 54.9477 41.0193 54.9477 43.18H59.9477C59.9477 41.7807 60.2924 41.1765 60.5552 40.9078L56.9801 37.4122ZM54.9477 43.18V55H59.9477V43.18H54.9477ZM57.4477 52.5H52.5877V57.5H57.4477V52.5ZM55.0877 55V34H50.0877V55H55.0877ZM52.5877 36.5H57.2977V31.5H52.5877V36.5ZM54.7977 34V36.55H59.7977V34H54.7977ZM59.2977 38.05C59.7658 37.4257 60.329 36.9785 61.013 36.6745L58.9823 32.1055C57.5063 32.7615 56.2695 33.7543 55.2977 35.05L59.2977 38.05ZM61.048 36.6587C61.7458 36.3356 62.617 36.14 63.7177 36.14V31.14C62.0183 31.14 60.4096 31.4444 58.9473 32.1213L61.048 36.6587ZM93.6246 53.2L95.0304 55.2673L96.7066 54.1275L95.9379 52.2519L93.6246 53.2ZM89.8446 54.79L89.2383 52.3646L89.2307 52.3666L89.8446 54.79ZM79.6446 54.58L78.7877 56.9286L78.8018 56.9337L78.8159 56.9387L79.6446 54.58ZM76.2846 52.36L74.3245 53.9118L74.3325 53.9218L74.3405 53.9318L76.2846 52.36ZM76.0746 46.12L78.1026 47.582L78.1026 47.582L76.0746 46.12ZM78.6246 44.2L79.5307 46.53L84.5886 44.563L79.8067 41.9971L78.6246 44.2ZM76.7046 42.4L74.541 43.6526L74.5532 43.6737L74.5659 43.6945L76.7046 42.4ZM77.0946 36.73L75.0895 35.2368L75.0895 35.2368L77.0946 36.73ZM80.2746 34.48L79.3574 32.1543L79.3574 32.1543L80.2746 34.48ZM89.4846 34.06L88.9582 36.504L88.9762 36.5078L88.9943 36.5115L89.4846 34.06ZM92.8746 35.14L95.2246 35.9928L95.9972 33.864L93.9549 32.8855L92.8746 35.14ZM91.5246 38.86L90.466 41.1248L92.9422 42.2822L93.8746 39.7128L91.5246 38.86ZM82.1346 38.29L83.4046 40.4434L83.4127 40.4386L83.4208 40.4337L82.1346 38.29ZM81.7446 41.89L80.2203 43.8716L80.2624 43.9039L80.3059 43.9345L81.7446 41.89ZM89.9046 42.46H92.4046V39.96H89.9046V42.46ZM89.9046 46.3V48.8H92.4046V46.3H89.9046ZM81.0546 46.93L79.7124 44.8208L79.7124 44.8208L81.0546 46.93ZM81.3246 50.74L80.0843 52.9106L80.1146 52.928L80.1455 52.9445L81.3246 50.74ZM88.9746 50.95L89.5993 53.3707L89.6175 53.366L89.6357 53.361L88.9746 50.95ZM92.1246 49.54L94.4379 48.5919L93.2541 45.7036L90.6942 47.4897L92.1246 49.54ZM92.2188 51.1327C91.5222 51.6064 90.5529 52.036 89.2383 52.3646L90.4509 57.2154C92.1763 56.784 93.727 56.1536 95.0304 55.2673L92.2188 51.1327ZM89.2307 52.3666C87.95 52.691 86.5577 52.86 85.0446 52.86V57.86C86.9315 57.86 88.7392 57.649 90.4585 57.2134L89.2307 52.3666ZM85.0446 52.86C83.1142 52.86 81.6118 52.6214 80.4733 52.2213L78.8159 56.9387C80.6374 57.5786 82.735 57.86 85.0446 57.86V52.86ZM80.5015 52.2314C79.3213 51.8008 78.6293 51.2837 78.2287 50.7882L74.3405 53.9318C75.4599 55.3163 77.0079 56.2792 78.7877 56.9286L80.5015 52.2314ZM78.2447 50.8082C77.833 50.2882 77.6446 49.7445 77.6446 49.09H72.6446C72.6446 50.8755 73.2162 52.5118 74.3245 53.9118L78.2447 50.8082ZM77.6446 49.09C77.6446 48.4633 77.8074 47.9915 78.1026 47.582L74.0467 44.658C73.1019 45.9685 72.6446 47.4766 72.6446 49.09H77.6446ZM78.1026 47.582C78.4141 47.1498 78.8571 46.792 79.5307 46.53L77.7185 41.87C76.2321 42.448 74.9751 43.3702 74.0467 44.658L78.1026 47.582ZM79.8067 41.9971C79.3616 41.7583 79.0603 41.4639 78.8434 41.1055L74.5659 43.6945C75.2689 44.8561 76.2476 45.7617 77.4426 46.4029L79.8067 41.9971ZM78.8682 41.1474C78.6641 40.7949 78.5446 40.3822 78.5446 39.85H73.5446C73.5446 41.1978 73.8651 42.4851 74.541 43.6526L78.8682 41.1474ZM78.5446 39.85C78.5446 39.264 78.7114 38.7447 79.0997 38.2232L75.0895 35.2368C74.0779 36.5953 73.5446 38.156 73.5446 39.85H78.5446ZM79.0997 38.2232C79.4493 37.7537 80.0764 37.2456 81.1918 36.8057L79.3574 32.1543C77.6328 32.8344 76.1399 33.8263 75.0895 35.2368L79.0997 38.2232ZM81.1918 36.8057C82.2371 36.3934 83.6455 36.14 85.4946 36.14V31.14C83.2237 31.14 81.1521 31.4466 79.3574 32.1543L81.1918 36.8057ZM85.4946 36.14C86.6817 36.14 87.8351 36.2621 88.9582 36.504L90.011 31.616C88.5341 31.2979 87.0275 31.14 85.4946 31.14V36.14ZM88.9943 36.5115C90.1378 36.7402 91.0613 37.0433 91.7943 37.3945L93.9549 32.8855C92.768 32.3167 91.4314 31.8998 89.9749 31.6085L88.9943 36.5115ZM90.5246 34.2872L89.1746 38.0072L93.8746 39.7128L95.2246 35.9928L90.5246 34.2872ZM92.5832 36.5952C90.4069 35.578 88.095 35.07 85.6746 35.07V40.07C87.3742 40.07 88.9623 40.422 90.466 41.1248L92.5832 36.5952ZM85.6746 35.07C83.9321 35.07 82.2172 35.325 80.8484 36.1463L83.4208 40.4337C83.6521 40.295 84.2971 40.07 85.6746 40.07V35.07ZM80.8646 36.1366C79.4428 36.9751 78.4646 38.3637 78.4646 40.18H83.4646C83.4646 40.1847 83.4638 40.2178 83.4496 40.2697C83.4351 40.3229 83.4119 40.3764 83.3828 40.4234C83.3223 40.5211 83.2869 40.5128 83.4046 40.4434L80.8646 36.1366ZM78.4646 40.18C78.4646 41.5829 79.0006 42.9333 80.2203 43.8716L83.2689 39.9084C83.2877 39.9229 83.3182 39.95 83.3516 39.9915C83.3853 40.0334 83.4134 40.0795 83.4342 40.125C83.4772 40.2194 83.4646 40.2561 83.4646 40.18H78.4646ZM80.3059 43.9345C81.4586 44.7457 82.8778 44.96 84.1746 44.96V39.96C83.7732 39.96 83.5 39.9239 83.328 39.8836C83.1566 39.8434 83.1333 39.8103 83.1833 39.8455L80.3059 43.9345ZM84.1746 44.96H89.9046V39.96H84.1746V44.96ZM87.4046 42.46V46.3H92.4046V42.46H87.4046ZM89.9046 43.8H83.8746V48.8H89.9046V43.8ZM83.8746 43.8C82.4238 43.8 80.9393 44.0401 79.7124 44.8208L82.3968 49.0392C82.4899 48.9799 82.8854 48.8 83.8746 48.8V43.8ZM79.7124 44.8208C78.3117 45.7122 77.5646 47.1287 77.5646 48.76H82.5646C82.5646 48.732 82.5675 48.7365 82.5607 48.7653C82.5536 48.7957 82.5387 48.8409 82.511 48.892C82.4832 48.9434 82.4514 48.9844 82.4239 49.013C82.3974 49.0406 82.3839 49.0474 82.3968 49.0392L79.7124 44.8208ZM77.5646 48.76C77.5646 50.6492 78.607 52.0664 80.0843 52.9106L82.565 48.5694C82.4154 48.4839 82.4351 48.4584 82.4888 48.5428C82.5148 48.5838 82.5369 48.6325 82.5508 48.6822C82.5573 48.7055 82.5609 48.7249 82.5628 48.7392C82.5646 48.7534 82.5646 48.7607 82.5646 48.76H77.5646ZM80.1455 52.9445C81.5544 53.6981 83.365 53.93 85.2546 53.93V48.93C83.6242 48.93 82.8148 48.7019 82.5037 48.5355L80.1455 52.9445ZM85.2546 53.93C86.7122 53.93 88.162 53.7416 89.5993 53.3707L88.3499 48.5293C87.3073 48.7984 86.277 48.93 85.2546 48.93V53.93ZM89.6357 53.361C91.0908 52.962 92.4149 52.3858 93.5551 51.5903L90.6942 47.4897C90.1143 47.8942 89.3384 48.258 88.3135 48.539L89.6357 53.361ZM89.8113 50.4881L91.3113 54.1481L95.9379 52.2519L94.4379 48.5919L89.8113 50.4881Z" fill="white"/>
</svg>
